<?xml version="1.0" encoding="utf-8"?>
<!-- Generator: Adobe Illustrator 23.0.0, SVG Export Plug-In . SVG Version: 6.00 Build 0)  -->
<svg version="1.1" id="Layer_1" xmlns="http://www.w3.org/2000/svg" xmlns:xlink="http://www.w3.org/1999/xlink" x="0px" y="0px"
	 viewBox="0 0 365 174" style="enable-background:new 0 0 365 174;" xml:space="preserve">
<style type="text/css">
	.st0{fill:#FFFFFF;}
	.st1{fill:#231F20;}
</style>
<g>
	<g id="Advance_1_">
		<g>
			<path class="st0" d="M61.7,30.91h13.29l3.26,40.13H65.05l-0.09-6.53H49.83l-4.47,6.53H31.9L61.7,30.91z M64.82,56.36l-0.23-13.5
				l-9.22,13.5H64.82z"/>
		</g>
		<path class="st0" d="M104.17,71.02H87.86c-7.76,0-10.89-6.35-8.09-15.75c2.8-9.46,9.82-15.81,17.45-15.81
			c2.1,0,3.92,0.35,5.95,1.29l3.2-9.82h10.74L104.17,71.02z M100.14,50.15c-1.22-0.41-2.31-0.65-3.32-0.65
			c-2.9,0-5.52,2.35-6.51,5.88c-0.9,3.41,0.57,5.58,3.74,5.58c0.92,0,1.31-0.18,2.77-0.53L100.14,50.15z"/>
		<path class="st0" d="M114.63,39.98h11.52l-1.17,16.52l11.09-16.52h9.76l-21.8,31.04h-8.83L114.63,39.98z"/>
		<path class="st0" d="M160.1,71.43c-5.49,0.41-7.95-0.24-8.73-2.88c-3.22,2-5.5,3-8.85,3c-6.1,0-7.51-3.59-6.23-7.58
			c0.59-1.88,1.94-3.76,3.76-5.29c3.94-3.29,11.47-3.76,15.18-6.29c0.83-2.82-0.08-4.43-3.06-3.82c-3.83,0.79-5.65,1.86-11.31,5.29
			l2.92-9.11c4.99-3.09,9.16-4.91,14.12-5.29c6.28-0.48,11.31,2.94,8.8,10.76l-2.85,8.82c-0.99,3.12-1.08,4.06,1.97,4.12
			L160.1,71.43z M153.34,58.37c-2.72,1.67-6.13,1.39-7.21,4.82c-0.52,1.62,0.11,2.82,1.51,2.82c1.37,0,2.38-0.67,3.95-1.72
			c0.02-0.57,0.18-1.19,0.57-2.34L153.34,58.37z"/>
		<path class="st0" d="M174.23,39.98h10.74l-1.34,4.06c3.99-3.29,6.83-4.58,10.24-4.58c5.99,0,8.01,4.17,5.79,11.05l-6.59,20.52
			h-10.74l5.48-16.99c0.99-3.12,0.48-4.53-1.64-4.53c-1.71,0-3.45,1.06-5.39,3.35l-5.83,18.16h-10.74L174.23,39.98z"/>
		<path class="st0" d="M219.02,69.61c-4.03,1.47-6.37,1.94-9.32,1.94c-9.14,0-13.39-6.53-10.37-15.87
			c2.51-7.76,9.79-16.22,20.37-16.22c2.89,0,5.87,0.53,8.31,1.59l-3.32,10.29c-1.97-1.23-3.96-1.82-6.23-1.82
			c-3.82,0-7.22,2.47-8.38,6.05c-1.11,3.53,0.87,5.94,4.84,5.94c2.01,0,3.95-0.53,7.3-1.94L219.02,69.61z"/>
		<path class="st0" d="M249.37,66.42c-4.42,4.03-8.65,5.13-13.87,5.13c-9.4,0-13.22-7.11-10.3-16.17
			c2.97-9.11,11.17-15.93,19.23-15.93c8.32,0,12.07,6.98,7.83,17.73h-17.3c-0.94,3.17,0.85,6.17,4.99,6.17
			c2.89,0,7.51-1.08,11.57-3.64L249.37,66.42z M244,52.62c1.24-3.9,0.57-5.9-2.07-5.9c-2.37,0-4.36,1.75-5.48,5.9H244z"/>
	</g>
	<g id="Auto_Parts_1_">
		<path class="st0" d="M133.84,73.8h17.07c9.56,0,11.39,5.15,9.7,10.55c-1.69,5.2-6.8,10.99-17.23,10.99h-4.86l-3.85,11.93h-11.65
			L133.84,73.8z M143.27,88.62c3.3,0,5.15-1.59,5.98-4.16c0.84-2.62,0-4.03-3.39-4.03h-2.55l-2.64,8.2H143.27z"/>
		<g>
			<path class="st0" d="M29.86,73.8h11.09l2.72,33.47H32.65l-0.08-5.45H19.96l-3.73,5.45H5L29.86,73.8z M32.46,95.03l-0.19-11.26
				l-7.69,11.26H32.46z"/>
		</g>
		<path class="st0" d="M174.26,107.6c-4.58,0.34-6.63-0.2-7.28-2.4c-2.69,1.67-4.58,2.5-7.38,2.5c-5.08,0-6.27-2.99-5.2-6.32
			c0.49-1.57,1.62-3.14,3.13-4.41c3.29-2.75,9.57-3.14,12.66-5.25c0.69-2.35-0.07-3.7-2.56-3.19c-3.19,0.66-4.71,1.55-9.43,4.41
			l2.43-7.6c4.16-2.58,7.64-4.1,11.78-4.41c5.24-0.4,9.43,2.45,7.34,8.97l-2.38,7.35c-0.83,2.6-0.9,3.38,1.64,3.43L174.26,107.6z
			 M168.63,96.7c-2.27,1.4-5.12,1.16-6.02,4.03c-0.43,1.35,0.09,2.35,1.26,2.35c1.14,0,1.99-0.56,3.29-1.43
			c0.02-0.48,0.15-1,0.47-1.95L168.63,96.7z"/>
		<path class="st0" d="M68.98,97.74c-0.78,2.4,0.13,3.38,2.53,2.55l-4.56,6.96c-1.48,0.34-2.6,0.44-4.02,0.44
			c-3.45,0-4.65-1.23-4.32-4.46c-3.08,2.99-6.11,4.46-9.21,4.46c-3.79,0-7.03-2.25-4.6-9.81l5.34-16.52h8.96l-4.52,14.02
			c-0.92,2.74-0.45,3.92,1.41,3.92c1.34,0,2.61-0.78,4.36-2.65l4.95-15.3h8.96L68.98,97.74z"/>
		<path class="st0" d="M88.65,104.8c-2.96,1.96-5.75,2.89-8.77,2.89c-2.71,0-5.14-0.88-6.19-2.75c-0.81-1.47-0.7-3.33,0.47-6.86
			l3.31-10.25H73.5l1.02-3.19l14.45-11.03h2.02l-2.48,7.75h7.2l-2.09,6.47h-7.2l-2.52,7.75c-0.78,2.4-0.25,3.43,1.6,3.43
			c1.51,0,3.38-0.64,5.68-2.01L88.65,104.8z"/>
		<path class="st0" d="M110.45,80.92c9.7,0,11.12,7.11,9.12,13.39c-2.23,6.86-8.59,13.39-17.64,13.39c-9.7,0-11.2-7.06-9.16-13.39
			C94.91,87.64,101.06,80.92,110.45,80.92z M104.56,99.31c2.63,0,5.07-2.06,6.04-5c0.93-2.94-0.2-5-2.83-5c-2.63,0-5.12,2.06-6.04,5
			C100.76,97.25,101.93,99.31,104.56,99.31z"/>
		<path class="st0" d="M241.76,89.85c-2.05-1.81-3.7-2.6-5.38-2.6c-1.25,0-2.35,0.74-2.69,1.76c-0.83,2.6,3.8,2.01,5.7,5.49
			c0.77,1.37,1,3.28,0.32,5.34c-1.02,3.24-4.73,7.84-11.27,7.84c-3.66,0-6.99-0.88-8.92-2.5l2.34-7.36
			c2.15,2.55,3.88,3.53,6.03,3.53c1.42,0,2.61-0.69,3-2.01c1.07-3.24-8.5-3.19-6.02-10.84c1.07-3.28,4.46-7.6,11.61-7.6
			c3.23,0,5.24,0.59,7.51,2.11L241.76,89.85z"/>
		<path class="st0" d="M194.54,81.38l-2.24,6.91h0.09c3.15-4.85,6.48-7.36,9.62-7.36c1.73,0,3.25,0.64,4.88,2.01l-7.27,10.3
			c-0.94-1.52-1.9-2.16-3.15-2.16c-2.2,0-4.53,2.45-5.97,5.44l-3.45,10.74h-8.96l8.36-25.89H194.54z"/>
		<path class="st0" d="M214.91,73.61l-10.04,14.25l2.05-0.02l-3.31,10.25c-1.16,3.53-1.27,5.39-0.46,6.86
			c1.05,1.86,3.48,2.75,6.19,2.75c3.01,0,5.81-0.93,8.76-2.89l2.53-7.8c-2.29,1.37-4.17,2.01-5.68,2.01c-1.85,0-2.38-1.03-1.6-3.43
			l2.52-7.75h7.2l2.09-6.47h-7.2l2.48-7.75L214.91,73.61z"/>
	</g>
	<polygon id="bar_1_" class="st0" points="252.5,107.27 277.22,30.91 266.6,30.91 241.9,107.27 	"/>
	<g id="flag_1_">
		<path class="st0" d="M272.53,64.3l-3.06,9.5l-1.53,2.88L263.01,92l-0.33,2.91l-3.74,11.6c0,0,5.26,1.66,14.31,2.57l3.9,1.18
			c4.35,0.3,8.14,0.32,12.36-0.05c2.48-0.22,5.3-1.04,8.27-1.9l4.67-2.02c2.07-0.46,4.14-0.77,6.16-0.71
			c6.58,0.18,9.44,0.28,9.44,0.28l3.27-10.16l2.01-4.38l4.93-15.31l0.91-4.67l2.53-7.87l1.49-2.77l4.93-15.3l0.02-1.88l4.03-12.54
			c0,0-2.89-0.09-9.44-0.38c-2.47-0.11-5.03,0.39-7.55,1.06l-2.82,0.2c-2.96,0.92-5.78,1.84-8.25,2.07
			c-4.25,0.4-8.05,0.38-12.42,0.06l-4.09,0.36c-9.19-0.95-14.55-2.73-14.55-2.73l-3.97,12.34l-1.28,2.1l-4.93,15.3L272.53,64.3z"/>
		<path class="st1" d="M291.91,64.37c4.36,0.31,8.13,0.32,12.37-0.06c2.5-0.22,5.33-1.14,8.32-2.04l4.91-15.31
			c-2.97,0.9-5.84,1.82-8.32,2.04c-4.24,0.38-8,0.35-12.37,0.05L291.91,64.37z"/>
		<path class="st1" d="M282.05,94.98c4.38,0.31,8.15,0.32,12.39-0.06c2.48-0.22,5.32-1.15,8.31-2.04l4.92-15.3
			c-2.98,0.9-5.82,1.81-8.3,2.03c-4.23,0.38-8.02,0.35-12.37,0.05L282.05,94.98z"/>
		<path class="st1" d="M322.36,31.87l-4.84,15.09c3.58-1.08,7.35-1.97,10.96-1.85c6.72,0.2,9.65,0.29,9.65,0.29l4.91-15.22
			c0,0-2.83-0.06-9.65-0.38C329.78,29.63,325.95,30.73,322.36,31.87z"/>
		<path class="st1" d="M263.01,92c0,0,5.54,1.73,15.03,2.64c1.41,0.14,2.73,0.25,4.02,0.34l-4.9,15.28
			c-1.29-0.09-2.63-0.21-4.04-0.34c-9.48-0.91-15.01-2.66-15.01-2.66L263.01,92z"/>
		<path class="st1" d="M296.84,49.05l4.85-15.04c-1.27-0.09-2.6-0.21-3.98-0.35c-9.48-0.97-15.01-2.8-15.01-2.8l-4.9,15.22
			c0,0,5.52,1.73,15,2.65C294.21,48.85,295.55,48.95,296.84,49.05z"/>
		<path class="st1" d="M267.94,76.67l4.92-15.3c0,0,5.53,1.73,15.01,2.65c1.42,0.14,2.74,0.25,4.04,0.34L287,79.67
			c-1.29-0.09-2.62-0.2-4.04-0.33C273.48,78.42,267.94,76.67,267.94,76.67z"/>
		<path class="st1" d="M323.34,91.32c0,0-2.91-0.08-9.62-0.29c-3.61-0.11-7.38,0.77-10.97,1.86l-4.96,15.43
			c3.59-1.08,7.39-2.07,11.01-2.01c6.8,0.13,9.63,0.28,9.63,0.28L323.34,91.32"/>
		<path class="st1" d="M307.67,77.59l4.94-15.32c3.59-1.08,7.35-1.95,10.96-1.86c6.72,0.18,9.63,0.29,9.63,0.29l-4.93,15.31
			c0,0-2.8-0.11-9.63-0.29C315.03,75.63,311.26,76.51,307.67,77.59z"/>
	</g>
	<path id="reg_trade_mark_3_" class="st0" d="M345.6,32.61c0-1.4,1.06-2.46,2.41-2.46c1.34,0,2.39,1.06,2.39,2.46
		c0,1.43-1.06,2.48-2.39,2.48C346.66,35.09,345.6,34.04,345.6,32.61z M348.01,35.58c1.61,0,2.99-1.25,2.99-2.97
		c0-1.7-1.38-2.95-2.99-2.95c-1.63,0-3.01,1.25-3.01,2.95C345,34.33,346.38,35.58,348.01,35.58z M347.39,32.85h0.59l0.9,1.48h0.58
		l-0.97-1.51c0.5-0.06,0.88-0.33,0.88-0.94c0-0.67-0.4-0.97-1.2-0.97h-1.3v3.42h0.52V32.85z M347.39,32.41v-1.06h0.7
		c0.36,0,0.74,0.08,0.74,0.5c0,0.52-0.39,0.56-0.83,0.56H347.39z"/>
	<g id="tag_1_">
		<path class="st0" d="M101.14,128.55c-0.93-1.06-2.03-1.48-3.49-1.48c-1.19,0-2.01,0.42-2.01,1.19c0,2.69,9.17,0.31,9.17,7.11
			c0,2.76-2.21,5.57-7.09,5.57c-2.98,0-5.61-0.71-7.38-3.25l2.87-2.23c1.04,1.28,2.5,2.03,4.2,2.03c1.88,0,2.63-0.73,2.63-1.46
			c0-2.54-9.03-0.6-9.03-6.91c0-3.27,2.72-5.5,6.71-5.5c2.34,0,4.73,0.71,6.21,2.63L101.14,128.55z"/>
		<path class="st0" d="M110.37,135.53c0,1.68,1.17,2.72,2.74,2.72c1.04,0,2.16-0.66,2.67-1.72l2.74,1.24
			c-1.44,2.1-3.4,3.18-6.21,3.18c-3.69,0-6.27-2.28-6.27-6.18c0-3.6,2.43-6.18,6.27-6.18c3.49,0,6.21,2.03,6.21,6.63v0.33H110.37z
			 M114.2,133.28c0.04-1.24-0.53-2.28-1.72-2.28c-1.41,0-1.92,0.99-1.94,2.28H114.2z"/>
		<path class="st0" d="M119.94,128.88h4.15v1.83h0.04c0.84-1.32,2.56-2.05,4.15-2.14v4.35c-0.88-0.42-1.66-0.6-2.25-0.6
			c-0.77,0-1.33,0.29-1.94,0.79v7.51h-4.15V128.88z"/>
		<path class="st0" d="M128.75,128.88h4.37l2.25,6.34h0.04l2.3-6.34h3.09l-4.55,11.75h-3.03L128.75,128.88z"/>
		<path class="st0" d="M141.81,123.93h4.15v3.31h-4.15V123.93z M141.81,128.88h4.15v11.75h-4.15V128.88z"/>
		<path class="st0" d="M154.91,133.01c-0.07-0.93-0.38-1.74-1.55-1.74c-0.88,0-1.72,0.75-1.72,3.49c0,2.58,0.66,3.49,2.14,3.49
			c1.35,0,1.86-0.93,2.21-1.99l2.98,0.53c-1.02,2.58-2.74,4.15-5.65,4.15c-3.49,0-6.01-2.28-6.01-6.18c0-3.6,2.43-6.18,5.96-6.18
			c2.87,0,4.68,1.46,5.39,4.2L154.91,133.01z"/>
		<path class="st0" d="M163.81,135.53c0,1.68,1.17,2.72,2.74,2.72c1.04,0,2.16-0.66,2.67-1.72l2.74,1.24
			c-1.44,2.1-3.4,3.18-6.21,3.18c-3.69,0-6.27-2.28-6.27-6.18c0-3.6,2.43-6.18,6.27-6.18c3.49,0,6.21,2.03,6.21,6.63v0.33H163.81z
			 M167.63,133.28c0.04-1.24-0.53-2.28-1.72-2.28c-1.41,0-1.92,0.99-1.94,2.28H167.63z"/>
		<path class="st0" d="M179.14,123.93h4.15v3.31h-4.15V123.93z M179.14,128.88h4.15v11.75h-4.15V128.88z"/>
		<path class="st0" d="M186.96,136.9c0.86,1.22,1.88,1.61,3.36,1.61c1.13,0,1.83-0.42,1.83-0.93c0-0.4-0.13-0.73-2.39-1.08
			c-2.14-0.33-3.25-0.66-3.98-1.46c-0.66-0.71-0.93-1.61-0.93-2.34c0-2.25,1.88-4.13,5.04-4.13c1.94,0,4.17,0.46,5.19,2.32
			l-2.45,1.44c-0.31-0.75-1.64-1.19-2.52-1.19c-0.88,0-1.59,0.2-1.59,0.91c0,0.48,0.42,0.64,1.86,0.82
			c3.73,0.49,5.57,1.66,5.57,3.95c0,2.45-1.66,4.13-6.03,4.13c-2.21,0-4.11-0.6-5.41-2.47L186.96,136.9z"/>
		<path class="st0" d="M208.85,140.94c-3.69,0-6.27-2.28-6.27-6.18c0-3.6,2.43-6.18,6.27-6.18c3.58,0,6.27,2.41,6.27,6.18
			C215.13,138.49,212.61,140.94,208.85,140.94z M210.8,134.76c0-2.74-0.73-3.49-1.94-3.49c-1.21,0-1.94,0.75-1.94,3.49
			c0,2.74,0.73,3.49,1.94,3.49C210.07,138.24,210.8,137.49,210.8,134.76z"/>
		<path class="st0" d="M227.89,140.63h-4.15v-1.68c-1.02,1.02-2.3,1.99-3.82,1.99c-1.13,0-3.38-0.64-3.38-3.56v-8.5h4.15v7.44
			c0,0.84,0.2,1.7,1.26,1.7c0.62,0,1.19-0.51,1.79-1.06v-8.08h4.15V140.63z"/>
		<path class="st0" d="M229.84,128.88h4.15v1.83h0.05c0.84-1.32,2.56-2.05,4.15-2.14v4.35c-0.88-0.42-1.66-0.6-2.25-0.6
			c-0.77,0-1.32,0.29-1.94,0.79v7.51h-4.15V128.88z"/>
		<path class="st0" d="M245.37,123.93h4.15v6.41h0.05c0.71-1.11,1.81-1.64,3.27-1.64c3.27,0,4.51,3.11,4.51,5.96
			c0,3.98-2.21,6.27-4.88,6.27c-1.59,0-2.98-0.69-3.82-2.08l-0.75,1.77h-2.52V123.93z M249.52,136.5c0,1.28,0.62,2.01,1.57,2.01
			c1.35,0,1.92-1.1,1.92-3.58c0-2.5-0.49-3.67-1.79-3.67c-0.57,0-1.08,0.24-1.7,0.88V136.5z"/>
		<path class="st0" d="M262.49,135.53c0,1.68,1.17,2.72,2.74,2.72c1.04,0,2.16-0.66,2.67-1.72l2.74,1.24
			c-1.44,2.1-3.4,3.18-6.21,3.18c-3.69,0-6.27-2.28-6.27-6.18c0-3.6,2.43-6.18,6.27-6.18c3.49,0,6.21,2.03,6.21,6.63v0.33H262.49z
			 M266.31,133.28c0.04-1.24-0.53-2.28-1.72-2.28c-1.41,0-1.92,0.99-1.94,2.28H266.31z"/>
		<path class="st0" d="M273.84,136.9c0.86,1.22,1.88,1.61,3.36,1.61c1.13,0,1.83-0.42,1.83-0.93c0-0.4-0.13-0.73-2.39-1.08
			c-2.14-0.33-3.25-0.66-3.98-1.46c-0.66-0.71-0.93-1.61-0.93-2.34c0-2.25,1.88-4.13,5.04-4.13c1.94,0,4.17,0.46,5.19,2.32
			l-2.45,1.44c-0.31-0.75-1.64-1.19-2.52-1.19c-0.88,0-1.59,0.2-1.59,0.91c0,0.48,0.42,0.64,1.86,0.82
			c3.73,0.49,5.57,1.66,5.57,3.95c0,2.45-1.66,4.13-6.03,4.13c-2.21,0-4.11-0.6-5.41-2.47L273.84,136.9z"/>
		<path class="st0" d="M283.61,128.88h1.94l0.29-4.13h3.64v4.13h1.97v2.7h-1.97v5.54c0,0.71,0.49,1,1.15,1
			c0.2,0,0.64-0.09,0.93-0.16v2.76c-0.77,0.13-1.57,0.22-2.19,0.22c-3.16,0-4.04-1.08-4.04-3.18v-6.18h-1.72V128.88z"/>
		<path class="st0" d="M298.54,128.88h4.02v1.19c1.02-0.79,2.19-1.5,3.53-1.5c3.05,0,4.42,3.18,4.42,5.96
			c0,3.05-1.33,6.27-4.71,6.27c-1.19,0-2.34-0.62-3.11-1.5v4.86h-4.15V128.88z M302.69,137.38c0.49,0.53,0.93,0.99,1.72,0.99
			c1.35,0,1.77-1.68,1.77-3.8c0-1.28-0.09-3.45-1.85-3.45c-0.66,0-1.3,0.46-1.64,0.88V137.38z"/>
		<path class="st0" d="M311.82,131.84c0.53-2.52,2.91-3.27,5.23-3.27c4.31,0,5.23,1.59,5.23,3.44v6.29c0,0.4,0.04,1.72,0.46,2.32
			h-4.26c-0.09-0.29-0.15-0.69-0.18-1.06c-0.95,0.86-2.27,1.37-3.58,1.37c-1.13,0-3.47-0.6-3.47-3.47c0-3.22,3.62-4.17,7.02-4.2
			v-0.97c0-0.88-0.64-1.17-1.39-1.17c-1.02,0-1.39,0.55-1.63,1.44L311.82,131.84z M318.26,135.26c-1.19,0.15-2.98,0.46-2.98,1.85
			c0,0.86,0.84,1.26,1.28,1.26c0.62,0,1.1-0.24,1.7-0.66V135.26z"/>
		<path class="st0" d="M324.03,128.88h4.15v1.83h0.05c0.84-1.32,2.56-2.05,4.15-2.14v4.35c-0.88-0.42-1.66-0.6-2.25-0.6
			c-0.77,0-1.32,0.29-1.94,0.79v7.51h-4.15V128.88z"/>
		<path class="st0" d="M333.11,128.88h1.94l0.29-4.13h3.64v4.13h1.96v2.7h-1.96v5.54c0,0.71,0.49,1,1.15,1
			c0.2,0,0.64-0.09,0.93-0.16v2.76c-0.77,0.13-1.57,0.22-2.19,0.22c-3.16,0-4.04-1.08-4.04-3.18v-6.18h-1.72V128.88z"/>
		<path class="st0" d="M343.04,136.3h4.33v4.33h-4.33V136.3z"/>
	</g>
	<path id="reg_trade_mark_1_" class="st0" d="M344.26,126.44c0-0.8,0.61-1.41,1.38-1.41c0.77,0,1.38,0.61,1.38,1.41
		c0,0.82-0.61,1.42-1.38,1.42C344.87,127.87,344.26,127.26,344.26,126.44z M345.64,128.15c0.93,0,1.72-0.72,1.72-1.71
		c0-0.97-0.79-1.69-1.72-1.69c-0.94,0-1.73,0.72-1.73,1.69C343.91,127.43,344.7,128.15,345.64,128.15z M345.29,126.58h0.34
		l0.52,0.85h0.33l-0.56-0.86c0.29-0.04,0.51-0.19,0.51-0.54c0-0.39-0.23-0.56-0.69-0.56h-0.74v1.96h0.3V126.58z M345.29,126.33
		v-0.61h0.4c0.21,0,0.43,0.04,0.43,0.29c0,0.3-0.22,0.32-0.48,0.32H345.29z"/>
</g>
</svg>
