<?xml version="1.0" encoding="utf-8"?>
<!-- Generator: Adobe Illustrator 21.0.0, SVG Export Plug-In . SVG Version: 6.00 Build 0)  -->
<svg version="1.1" id="Layer_1" xmlns="http://www.w3.org/2000/svg" xmlns:xlink="http://www.w3.org/1999/xlink" x="0px" y="0px"
	 viewBox="0 0 207 131" style="enable-background:new 0 0 207 131;" xml:space="preserve">
<style type="text/css">
	.st0{fill:#010101;}
	.st1{fill:#FFFFFF;}
</style>
<g>
	<path class="st0" d="M163.2,30.3V6H27.8v23.9c-4.8,0.6-9.1,3-12.3,6.3c-3.8,4-6.1,9.5-6.1,15.5s2.3,11.5,6.1,15.5
		c3.2,3.4,7.5,5.7,12.3,6.4l0,12.3c0,0,0,0.1,0,0.1l0,0c0,0,0,0,0,0s0,0,0,0c0,8.4,3.4,18.1,11.1,25.9c7.4,7.5,18.8,12.9,34.1,13.3
		l7,0c12.1-0.2,20.7-2,27.3-5c5.2-2.3,9.1-5.3,12.3-8.2c4.8-4.4,8.2-8.3,13.3-11.1c5.1-2.8,12.3-5,25.2-5h5l0-22.2h31.6V49.1h6.5
		V30.3L163.2,30.3L163.2,30.3z"/>
	<g>
		<rect x="32.8" y="11.1" class="st1" width="42.1" height="21.9"/>
		<rect x="78.1" y="11.1" class="st1" width="80" height="21.8"/>
		<polygon class="st1" points="174.5,35.3 196.1,35.3 196.1,44.1 189.7,44.1 189.7,68.6 181,68.6 181,44.1 174.5,44.1 		"/>
		<polygon class="st1" points="135.9,35.3 155.1,35.3 155.1,44.1 143.9,44.1 143.9,47.7 151.5,47.7 151.5,56.4 143.9,56.4 
			143.9,60.5 155.1,60.5 155.1,68.6 135.9,68.6 		"/>
		<path class="st1" d="M111.4,35.3h8.6c0,0,0,17.9,0,21.1c0,5.3,5.5,5.2,5.5,0c0-2.2,0-21.1,0-21.1h8.7c0,0,0,13.3,0,23.3
			c0,13.6-22.9,13.8-22.9,0C111.4,47.3,111.4,35.3,111.4,35.3z"/>
		<path class="st1" d="M109.8,51.6c0-9.4-7.2-17-16.2-17s-16.2,7.6-16.2,17c0,9.4,7.2,17,16.1,17c1.7,0,2.6,1.2,3.4,2.7h8.5
			c-0.2-3.6-2.4-5.9-2.4-5.9C107.1,62.2,109.8,57.3,109.8,51.6z M93.6,59.9c-4.3,0-7.9-3.7-7.9-8.2s3.5-8.2,7.9-8.2s7.9,3.7,7.9,8.2
			C101.5,56.2,98,59.9,93.6,59.9z"/>
		<path class="st1" d="M172.8,35.3v8.7c0,0-4,0-5.3,0c-3,0-3.8,3.4,0,3.9c2.2,0.6,2.7,0.6,4.4,1.5c9.3,5.9,3,19.1-4.1,19.1
			c-0.9,0-11.2,0-11.2,0v-8.1c0,0,6.8,0,8.8,0c3.5,0,4.3-4.1-0.1-4.7c-11.8-1.7-11.3-19.4,0.2-20.4
			C166.9,35.3,172.8,35.3,172.8,35.3z"/>
		<path class="st1" d="M31,34.7v8.8C19.8,43.5,20.1,60,31,60v8.6c0,0-0.2,0-0.5,0c-8.9,0-16.1-7.6-16.1-17s7.2-17,16.2-17L31,34.7z"
			/>
		<path class="st1" d="M32.7,58.6v10h8.1V65h4.9v3.6h8.2V35.3C51.1,35.3,32.7,37.9,32.7,58.6z M46.2,56.4h-4.9
			c0-3.7,1.9-8.7,4.9-8.7V56.4z"/>
		<path class="st1" d="M63.9,35.3c-3.4,0-8,0-8,0v33.2h7.9v-7.9c0,0,3.5-0.2,3.5,3.8c0,3.9,0,4.1,0,4.1h8.1v-4.8
			c0-1.5-0.1-4.7-2.8-7.4C78.2,51.6,77.9,35.3,63.9,35.3z M63.9,51.6v-7.5C68.7,44.1,69.2,51.6,63.9,51.6z"/>
		<path class="st1" d="M74.9,73.3l0,46.9c-30.5,0-42.1-20.2-42.1-34.3l0-12.6H74.9z"/>
		<path class="st1" d="M78.1,120.2V73.3h80c0,0,0,17.6,0,17.5C110.2,90.8,128.7,120.2,78.1,120.2z"/>
	</g>
	<path class="st1" d="M154.1,98.7c0.9,0,1.8,0.3,2.4,1c0.6,0.6,1,1.5,1,2.4c0,0.9-0.4,1.7-1,2.3c-0.7,0.6-1.5,1-2.4,1
		s-1.8-0.4-2.4-1c-0.6-0.6-1-1.5-1-2.4s0.4-1.8,1-2.4C152.4,99,153.1,98.7,154.1,98.7z M154,98c-1.5,0-2.7,0.7-3.4,1.9
		c-0.4,0.7-0.6,1.4-0.6,2.1c0,1,0.4,2,1.1,2.8c0.8,0.8,1.8,1.2,2.9,1.2c1,0,2.1-0.4,2.8-1.2c0.8-0.7,1.2-1.7,1.2-2.9
		c0-1.1-0.4-2.1-1.1-2.8C156.2,98.4,155.2,98,154,98z M152.4,99.7v4.5h1.1v-1.8h0.5l0.9,1.8h1.2l-1-2c0.6-0.1,1-0.6,1-1.2
		c0-0.9-0.6-1.3-1.9-1.3H152.4z M153.5,100.4h0.5c0.7,0,1,0.2,1,0.7c0,0.4-0.3,0.6-0.9,0.6h-0.5V100.4z"/>
</g>
</svg>
