<svg xmlns="http://www.w3.org/2000/svg" xmlns:xlink="http://www.w3.org/1999/xlink" id="LowesLogo" x="0" y="0" version="1.1" viewBox="0 0 365 174" xml:space="preserve" style="enable-background:new 0 0 365 174"><style type="text/css">.st0{fill:#fff}</style><g><g><path d="M92.14,43.5l90.89-38.94l90.9,38.94h56.67v15.88H359v106.77H7.04V59.39h28.4V43.5H92.14z M42.93,50.99v15.88 H14.51v91.81h337.01V66.87h-28.4V50.99h-50.72l-89.3-38.28L93.83,50.99H42.93z" class="st0"/></g><polygon points="266.98 71.9 266.98 89.16 278.14 89.18 280.47 71.91" class="st0"/><path d="M322.66,89.26c0-2.82,2.28-4.88,4.97-4.88c2.68,0,4.96,2.07,4.96,4.88c0,2.83-2.28,4.89-4.96,4.89 C324.94,94.16,322.66,92.09,322.66,89.26L322.66,89.26z M327.63,93.34c2.22,0,3.96-1.72,3.96-4.08c0-2.32-1.74-4.07-3.96-4.07 c-2.24,0-3.98,1.75-3.98,4.07C323.64,91.62,325.39,93.34,327.63,93.34L327.63,93.34z M326.59,92.09h-0.84v-5.65h2.15 c1.33,0,1.98,0.5,1.98,1.61c0,1.01-0.62,1.46-1.45,1.55l1.6,2.49h-0.95l-1.49-2.45h-0.99V92.09L326.59,92.09z M327.62,88.92 c0.73,0,1.37-0.05,1.37-0.94c0-0.69-0.64-0.81-1.23-0.81h-1.17v1.75H327.62L327.62,88.92z" class="st0"/><polygon points="63.2 130.71 63.2 71.9 47.11 71.9 47.11 144.72 88.09 144.72 88.09 130.71" class="st0"/><polygon points="225.14 144.72 263.43 144.72 263.43 130.69 241.31 130.69 241.31 121.55 263.43 121.55 263.43 108.06 241.31 108.06 241.31 98.87 263.43 98.87 263.43 84.78 225.14 84.78 225.14 84.84" class="st0"/><path d="M140.97,137.06c0,4.24-3.42,7.66-7.65,7.66h-31.08c-4.22,0-7.65-3.42-7.65-7.66V92.44 c0-4.23,3.42-7.66,7.65-7.66h31.08c4.23,0,7.65,3.43,7.65,7.66V137.06z M124.85,98.87H110.7v31.78h14.15V98.87z" class="st0"/><g><path d="M199.82,84.78v45.93h-9.72V84.78h-14.14v45.93h-9.71V84.78h-16.12v52.28c0,4.24,3.43,7.66,7.66,7.66h19.05 c3.21,0,6.2-2.21,6.2-5.42c0,3.21,3,5.42,6.2,5.42h19.05c4.23,0,7.66-3.42,7.66-7.66V84.78H199.82z" class="st0"/></g><path d="M319.92,122.07l0.01,0.01l-0.1-0.22c-0.06-0.12-0.12-0.25-0.19-0.37l-0.1-0.2 c-2.55-5.11-8.26-9.39-17.45-13.06l-0.33-0.13c-1.82-0.71-7.36-2.88-7.97-6.4c-0.17-0.99,0.23-2.53,1.32-3.47 c1.17-1.18,2.93-1.78,5.28-1.78c3.74,0,8.01,1.53,10.21,2.44c4.65,1.93,8.72,3.65,8.77,3.66l0.41,0.17V89.65l-0.14-0.09 c-0.09-0.06-8.87-5.6-17.76-6.87c-1.02-0.09-2.03-0.13-3-0.13c-8.18,0-14.37,2.98-18.4,8.83c-3.38,4.81-3.76,12.43-0.88,18.11 c3.7,6.43,9.64,9.11,15.38,11.71c2.37,1.06,4.81,2.18,7.11,3.54l0.03,0.02c2.59,1.55,3.91,3.94,3.36,6.06 c-0.56,2.19-3.07,3.66-6.25,3.66c-0.44,0-0.87-0.03-1.3-0.08l-0.15-0.02c-6.1-0.86-18.46-5.46-18.59-5.5l-0.39-0.15v14.36l0.2,0.06 c0.11,0.04,12.08,4.01,22.71,4.01l0,0c5.8,0,10.18-1.18,13.01-3.47c0.07-0.05,6.56-5.26,6.85-14.14 C321.65,127.08,321.1,124.57,319.92,122.07z" class="st0"/></g></svg>