<svg xmlns="http://www.w3.org/2000/svg" xmlns:xlink="http://www.w3.org/1999/xlink" id="Layer_1" x="0" y="0" version="1.1" viewBox="0 0 792 612" xml:space="preserve" style="enable-background:new 0 0 792 612"><style type="text/css">.st0{fill:#fff}.st1{fill:#317052}</style><g><g><g id="_x37_CcJ2a.tif_39_"><g><g><path d="M454.77,327.94c-1.08,1.15-2.28,1.41-3.72,1.27c-2.68-0.27-5.38-0.49-8.07-0.5 c-2.12-0.01-4.25,0.27-6.36,0.51c-2.19,0.25-3.96-0.24-4.94-2.57c-0.19,0.28-0.34,0.45-0.45,0.65 c-2.11,3.73-4.24,7.45-6.3,11.2c-2.41,4.38-7.2,6.55-12.17,6c-4.14-0.45-7.28-2.73-10.11-5.57c-2.76-2.78-4.63-6.2-6.85-9.38 c-0.8-1.14-1.55-2.32-2.32-3.47c-0.14-0.21-0.29-0.42-0.61-0.56c-0.02,0.28-0.05,0.57-0.07,0.85c-0.12,1.73-1.15,2.79-2.9,2.78 c-1.36-0.01-2.72-0.29-4.08-0.29c-1.82,0-3.64,0.09-5.45,0.26c-1.28,0.12-2.41,0.03-3.22-1.08c-0.82-1.13-0.78-2.35-0.05-3.45 c0.69-1.05,0.52-1.94-0.14-2.86c-1.03-1.45-2.07-2.88-3.09-4.33c-0.4-0.56-0.85-0.67-1.37-0.23c-0.94,0.79-1.88,1.58-2.77,2.43 c-0.47,0.45-0.25,2.76,0.28,3.17c0.2,0.15,0.55,0.19,0.82,0.16c0.35-0.03,0.68-0.2,1.02-0.28c1.39-0.35,2.55,0.33,2.68,1.73 c0.09,0.93,0.01,1.92-0.2,2.83c-0.28,1.26-1.32,2-2.68,1.95c-1.61-0.05-3.21-0.34-4.81-0.34c-2.23,0-4.46,0.18-6.69,0.26 c-0.7,0.02-1.41-0.04-2.11-0.02c-0.51,0.01-1.03,0.14-1.54,0.11c-1.22-0.07-2.45-0.29-3.67-0.29 c-1.98,0.01-3.97,0.16-5.95,0.22c-0.87,0.02-1.75,0.06-2.59-0.11c-0.51-0.1-1.04-0.49-1.39-0.91 c-0.83-0.98-0.87-3.41-0.05-4.41c0.34-0.41,0.96-0.71,1.5-0.83c1.44-0.32,1.74-0.6,1.72-2.09c-0.03-2.95-0.08-5.9-0.12-8.84 c0-0.19-0.01-0.38-0.04-0.57c-0.27-1.46-0.61-2.91-2.32-3.32c-1.88-0.46-3.58-0.05-4.96,1.37c-1.02,1.05-1.49,2.33-1.48,3.79 c0.01,2.62,0.01,5.24,0.05,7.87c0.01,1.19,0.26,1.53,1.41,1.74c1.17,0.21,1.82,0.9,1.9,2.02c0.07,0.85,0.05,1.75-0.14,2.58 c-0.27,1.18-1.16,1.81-2.43,1.79c-1.14-0.02-2.28-0.28-3.42-0.28c-2.04,0.01-4.08,0.13-6.12,0.2 c-0.38,0.01-0.76,0.06-1.14,0.09c-1.27,0.08-2.46-0.08-3.38-1.18c-1.05,1.3-2.42,1.3-3.85,1.1c-3.21-0.44-6.42-0.46-9.63-0.01 c-0.43,0.06-0.87,0.07-1.31,0.09c-1.38,0.08-2.49-0.41-3.15-1.64c-0.72-1.34-0.71-2.74,0.01-4.08 c0.46-0.86,1.51-1.25,2.67-0.89c1.46,0.46,2.16,0.64,2.23-1.8c0.1-3.79,0.02-7.59,0-11.39c0-0.37-0.09-0.76-0.21-1.12 c-0.19-0.57-0.55-0.88-1.19-0.58c-0.15,0.07-0.31,0.11-0.47,0.14c-2.1,0.5-3.44-0.5-3.54-2.66c-0.13-2.65,1.5-4.28,4.18-3.92 c2.62,0.35,5.2,0.48,7.81-0.01c1.1-0.21,1.7,0.32,1.85,1.44c0.05,0.35,0.03,0.71,0.03,1.06c0,5.46-0.01,10.93,0.01,16.39 c0,0.67,0.13,1.35,0.31,2c0.16,0.58,0.58,0.81,1.21,0.6c0.98-0.32,1.96-0.51,2.88,0.23c0.09,0.07,0.33,0.05,0.43-0.03 c0.93-0.63,1.91-0.54,2.91-0.25c0.85,0.25,1.16,0.11,1.36-0.75c0.15-0.63,0.23-1.29,0.24-1.94c0.02-3.2,0.03-6.39,0-9.59 c-0.01-0.73-0.14-1.47-0.31-2.18c-0.13-0.55-0.51-0.78-1.13-0.6c-0.52,0.15-1.07,0.26-1.6,0.26c-1.22,0.01-1.93-0.58-2.24-1.75 c-0.58-2.18,0.41-4.34,2.25-4.81c0.51-0.13,1.11-0.18,1.61-0.05c1.96,0.5,3.89,0.33,5.84,0.01c0.21-0.04,0.43-0.07,0.65-0.08 c1.08-0.04,1.58,0.4,1.62,1.48c0.03,0.81,0.01,1.62,0.01,2.61c0.73-0.69,1.31-1.29,1.93-1.83c2.97-2.58,6.36-3.6,10.25-2.78 c3.58,0.75,6,3.31,6.5,6.99c0.19,1.43,0.29,2.88,0.32,4.32c0.05,2.76,0.01,5.52,0.02,8.28c0,0.49,0.05,0.98,0.16,1.46 c0.24,1.04,0.64,1.1,1.66,0.96c1.08-0.15,2.22-0.11,3.3,0.06c0.84,0.14,1.22-0.13,1.36-0.85c0.14-0.75,0.26-1.51,0.26-2.27 c0.02-6.12,0.02-12.24,0-18.36c0-0.68-0.06-1.37-0.19-2.03c-0.2-1.03-0.53-1.18-1.56-0.99c-0.56,0.1-1.17,0.21-1.7,0.08 c-0.54-0.13-1.22-0.42-1.49-0.85c-0.84-1.31-0.74-2.77-0.1-4.15c0.55-1.18,1.63-1.55,2.86-1.5c0.84,0.03,1.68,0.17,2.53,0.17 c1.6,0,3.2-0.07,4.8-0.11c0.49-0.01,0.98-0.07,1.47-0.06c1.15,0,1.68,0.54,1.73,1.7c0.01,0.25,0,0.49,0,0.74 c0,5.76,0,11.53,0,17.29c0,0.3,0,0.6,0,0.96c0.16-0.04,0.28-0.03,0.34-0.09c1.42-1.24,2.87-2.45,4.24-3.73 c1.19-1.11,1.11-1.53-0.03-2.68c-0.49-0.5-0.98-1.14-1.15-1.8c-0.42-1.68,0.59-2.95,2.33-2.98c1.25-0.02,2.5,0.13,3.76,0.21 c0.16,0.01,0.32,0.05,0.49,0.07c1.37,0.13,1.37,0.13,1.71-1.19c0.48-1.88,1.39-3.54,2.6-5.06c0.25-0.32,0.44-0.75,0.51-1.15 c0.44-2.43,1.15-4.76,2.38-6.93c0.18-0.32,0.21-0.84,0.08-1.19c-0.96-2.73-1.39-5.51-0.72-8.36c0.96-4.16,3.86-6.59,7.6-8.17 c2.81-1.19,5.8-1.73,8.82-1.99c2.09-0.18,4.4,1.46,5.39,3.76c0.77,1.78,1.02,3.67,0.93,5.6c-0.01,0.18-0.02,0.36-0.03,0.56 c1.63,0.07,3.2,0.11,4.77,0.22c1.41,0.1,2.82,0.26,4.23,0.46c0.68,0.1,1.13-0.04,1.61-0.59c2.39-2.71,5.28-4.55,8.98-4.85 c2.31-0.19,4.49,0.31,6.41,1.54c1.66,1.07,3.25,2.31,4.69,3.66c1.41,1.33,2.38,3.06,1.82,5.07c-0.71,2.56-2.26,4.54-4.94,5.33 c-0.63,0.18-1.33,0.1-2.04,0.15c0.17,1.05,0.33,2.16,0.54,3.27c0.02,0.11,0.28,0.23,0.43,0.24c2.45,0.21,4.89,0.51,7.34,0.56 c1.96,0.04,3.92-0.23,5.88-0.32c1.44-0.07,2.89-0.18,4.32-0.07c1.41,0.11,2.41,0.98,2.63,2.41c0.14,0.97,0.17,2.04-0.08,2.97 c-0.44,1.65-1.83,2.34-3.51,2c-0.51-0.1-1.02-0.18-1.53-0.25c-0.71-0.1-1.2,0.24-1.38,0.88c-0.2,0.7-0.38,1.44-0.39,2.16 c-0.03,5.55-0.03,11.09,0,16.64c0,0.7,0.14,1.41,0.34,2.08c0.28,0.93,0.79,1.18,1.75,1c0.29-0.05,0.59-0.11,0.88-0.17 c1.68-0.35,2.3-0.16,3.55,1.15c1.04-0.58,2.14-0.53,3.27-0.13c0.63,0.22,0.94-0.25,1.04-0.75c0.14-0.77,0.24-1.57,0.24-2.35 c0.01-3.31-0.01-6.61-0.03-9.92c0-0.32-0.04-0.66-0.1-0.97c-0.25-1.2-0.51-1.36-1.67-1.05c-2.29,0.61-3.6-0.42-3.59-2.8 c0.02-2.68,1.69-4.12,4.31-3.58c1.83,0.38,3.63,0.24,5.44-0.05c0.32-0.05,0.65-0.1,0.98-0.09c0.87,0.01,1.3,0.43,1.33,1.31 c0.03,0.86,0.01,1.73,0.19,2.7c0.25-0.26,0.5-0.51,0.75-0.77c3.11-3.18,6.79-4.7,11.26-3.77c3.78,0.79,6.34,3.56,6.58,7.45 c0.24,3.86,0.16,7.75,0.25,11.62c0.02,0.73,0.09,1.48,0.27,2.18c0.22,0.86,0.63,0.89,1.47,0.79c1.14-0.13,2.32-0.12,3.46,0.04 c0.8,0.11,1.16-0.15,1.32-0.81c0.13-0.52,0.21-1.08,0.21-1.62c0.01-6.58,0.01-13.17,0.01-19.75c0-0.27,0.01-0.55-0.04-0.82 c-0.25-1.33-0.4-1.81-1.95-1.45c-2.51,0.58-3.88-1.06-3.39-3.87c0.29-1.67,1.33-2.59,3.05-2.6c0.9-0.01,1.79,0.16,2.69,0.16 c1.6,0,3.2-0.06,4.8-0.1c0.57-0.01,1.15-0.06,1.72-0.07c0.8-0.01,1.28,0.42,1.43,1.18c0.09,0.45,0.14,0.92,0.14,1.38 c0.01,5.68,0.01,11.37,0.01,17.05c0,0.33,0,0.65,0,1.06c0.18-0.07,0.32-0.09,0.41-0.17c1.34-1.17,2.7-2.31,3.99-3.52 c1.35-1.26,1.33-1.67-0.03-2.89c-0.64-0.58-1.06-1.21-1.06-2.11c-0.01-1.66,0.79-2.61,2.46-2.59c1.69,0.02,3.37,0.3,5.06,0.3 c2.26,0,4.52-0.15,6.78-0.24c0.22-0.01,0.43-0.06,0.65-0.07c1.24-0.06,2.49-0.02,3.2,1.18c0.79,1.34,0.73,2.78,0.08,4.16 c-0.48,1.02-1.51,1.32-2.44,1.04c-2-0.61-3.49,0.16-4.94,1.36c-0.84,0.7-1.76,1.3-2.58,2.01c-0.79,0.69-0.78,1.03-0.22,1.9 c1.48,2.3,2.94,4.6,4.41,6.9c0.28,0.44,0.58,0.86,0.85,1.3c0.88,1.45,2,2.15,3.8,1.6c1.45-0.44,2.45,0.29,2.74,1.77 c0.13,0.69,0.18,1.42,0.09,2.11c-0.23,1.76-1.27,2.62-3.08,2.62c-0.84,0-1.7-0.05-2.53-0.18c-2.32-0.39-4.62-0.26-6.92,0.13 c-1.23,0.21-2.34,0.01-3.13-1.1c-0.77-1.08-0.79-2.25-0.1-3.3c0.78-1.19,0.55-2.18-0.21-3.22c-0.98-1.35-1.96-2.7-2.91-4.06 c-0.44-0.62-0.93-0.72-1.5-0.23c-0.89,0.77-1.79,1.52-2.63,2.33c-0.48,0.46-0.3,2.89,0.26,3.24c0.27,0.17,0.71,0.09,1.07,0.07 c0.69-0.04,1.43-0.3,2.05-0.13c0.5,0.14,1.07,0.71,1.26,1.22c0.45,1.18,0.27,2.43-0.2,3.6c-0.46,1.16-1.4,1.67-2.59,1.63 c-1.61-0.06-3.21-0.34-4.81-0.34c-2.23,0-4.46,0.18-6.69,0.26c-0.67,0.02-1.35-0.04-2.03-0.02c-0.54,0.01-1.08,0.14-1.62,0.1 c-1.2-0.07-2.39-0.29-3.58-0.29c-1.98,0.01-3.97,0.15-5.95,0.21c-0.84,0.02-1.69,0.06-2.52-0.06c-1.16-0.17-1.83-0.96-2-2.09 c-0.1-0.66-0.12-1.36-0.03-2.02c0.17-1.38,0.71-1.89,2.06-2.13c1.33-0.24,1.57-0.54,1.57-1.91c0-2.51,0.01-5.03-0.01-7.54 c-0.01-0.73-0.06-1.47-0.16-2.2c-0.4-2.95-2.11-3.63-4.64-3.18c-2.31,0.41-3.96,2.34-4.04,4.91c-0.1,2.83,0.05,5.68,0.07,8.51 c0.01,0.8,0.43,1.16,1.16,1.34c1.95,0.5,2.47,1.52,2.14,4.05c-0.21,1.63-1.22,2.45-3.04,2.39c-1.03-0.04-2.06-0.3-3.09-0.29 c-2.07,0.02-4.13,0.13-6.2,0.24C457.57,329.19,455.99,329.4,454.77,327.94z M386.49,293.48c0.46-0.22,0.72-0.35,0.99-0.48 c1.84-0.88,3.76-1.46,5.81-1.51c0.42-0.01,0.94-0.12,0.99,0.54c0.05,0.61-0.39,0.67-0.85,0.75c-2.1,0.34-4.07,1.03-5.86,2.19 c-1.99,1.29-3.56,2.95-4.31,5.28c-1.07,3.35-0.36,6.42,1.53,9.26c4.32,6.5,8.64,13,13.03,19.46c1.91,2.82,3.82,5.67,6.02,8.25 c2.45,2.86,5.47,5.06,9.45,5.32c4.31,0.29,7.76-1.23,9.95-5.09c4.6-8.12,9.18-16.24,13.73-24.38c1.09-1.94,2.36-3.8,2.95-6 c1.4-5.18-0.51-9.38-5.44-11.5c-1.43-0.62-3.02-0.87-4.52-1.35c-0.28-0.09-0.48-0.46-0.71-0.69c0.26-0.18,0.51-0.5,0.78-0.52 c0.56-0.04,1.14,0.07,1.71,0.13c0.83,0.09,1.1-0.14,1.11-0.97c0.03-2.03-0.59-3.87-1.74-5.53c-1.74-2.5-4.24-3.96-7.01-5.02 c-3.47-1.32-7.11-1.87-10.79-2.11c-1.49-0.1-3-0.07-4.49-0.04c-0.31,0.01-0.79,0.22-0.91,0.47c-1.77,3.65-8.69,4.69-11.34,2.31 c-0.17-0.15-0.57-0.2-0.79-0.11c-2.32,0.96-4.46,2.19-6.07,4.17C388.03,288.35,387.06,290.71,386.49,293.48z M392.54,272.75 c0.3,0.43,0.48,0.66,0.62,0.9c1.11,1.81,2.25,3.61,3.32,5.45c1.14,1.98,2.84,2.64,5.04,2.42c2.58-0.25,4.5-1.46,5.03-3.51 c0.6-2.27,0.33-4.51-0.82-6.58c-0.69-1.24-1.79-2.06-3.27-1.96c-3.34,0.23-6.59,0.92-9.57,2.53c-3.63,1.97-5.47,5-5.18,9.18 c0.08,1.11,0.37,2.2,0.59,3.4c1-0.73,0.95-0.72,0.9-1.43c-0.09-1.03-0.17-2.07-0.14-3.1c0.05-1.67,0.69-3.09,1.89-4.31 c0.55-0.56,0.85-1.37,1.24-2.07C392.31,273.46,392.37,273.22,392.54,272.75z M420.95,278.36c0.12,0.14,0.24,0.29,0.36,0.43 c0.25-0.18,0.53-0.33,0.76-0.54c1.42-1.32,3.01-2.34,4.89-2.86c0.82-0.22,1.06-0.06,1.09,0.77c0.05,1.67,0.52,3.22,1.33,4.67 c1.15,2.07,2.77,3.71,4.65,5.11c0.81,0.61,1.77,0.7,2.59,0.07c0.72-0.56,1.42-1.2,1.96-1.94c1.2-1.65,1.15-2.76-0.1-4.37 c-1.51-1.93-3.46-3.33-5.67-4.32c-0.9-0.4-1.91-0.66-2.9-0.77c-3.13-0.35-5.66,1.02-7.93,3 C421.66,277.87,421.3,278.1,420.95,278.36z M391.04,322.42c-2.82-4.21-5.62-8.4-8.47-12.66c-0.58,0.48-1.11,0.9-1.62,1.35 c-0.53,0.47-0.54,0.98-0.15,1.59c1.61,2.47,3.16,4.98,4.77,7.44c0.52,0.79,1.14,1.53,1.76,2.25c0.43,0.5,1,0.59,1.64,0.43 C389.61,322.66,390.26,322.57,391.04,322.42z M438.56,314.33c-1.4,2.48-2.7,4.78-4,7.07c0.1,0.09,0.14,0.15,0.18,0.16 c0.58,0.12,1.17,0.23,1.75,0.35c1.17,0.23,1.97-0.21,2.03-1.37C438.63,318.56,438.56,316.57,438.56,314.33z" class="st0"/><path d="M268.89,310.45c0.21-4.37,0.87-8.57,3.3-12.3c2.86-4.39,7-6.59,12.16-6.97c2.68-0.2,5.35-0.05,7.94,0.72 c4.96,1.48,8.46,4.64,10.17,9.51c2.25,6.39,2.14,12.85-0.48,19.1c-2.43,5.79-7.04,8.76-13.26,9.31c-3.65,0.32-7.21,0-10.54-1.6 c-4.77-2.28-7.36-6.28-8.43-11.32C269.31,314.8,269.17,312.61,268.89,310.45z M279.34,310.87c0.02,2.2,0.14,4.67,0.99,7.05 c1.32,3.7,4.4,4.83,7.77,4.16c2.63-0.52,3.96-2.44,4.73-4.82c0.85-2.66,0.92-5.42,0.8-8.18c-0.1-2.13-0.31-4.24-1.11-6.25 c-0.74-1.89-1.97-3.3-4-3.77c-3.53-0.82-6.54,0.3-8.02,3.99C279.54,305.45,279.34,308,279.34,310.87z" class="st0"/><path d="M314.72,289.03c2.87,0.01,4.98,2.17,4.96,5.07c-0.02,2.79-2.21,4.93-5.04,4.91 c-2.75-0.02-4.96-2.27-4.94-5.05C309.73,291.13,311.88,289.02,314.72,289.03z" class="st0"/><path d="M423.14,299.82c2.11,1.75,3.44,3.92,3.83,6.71c0.79-2.5,1.58-4.99,2.42-7.61 c-0.4-0.03-0.69-0.04-0.97-0.09c-0.27-0.05-0.54-0.14-0.85-0.22c0.73-0.93,2.11-1.28,3.17-0.89c1.02,0.38,1.74,1.34,1.67,2.35 c-0.58-0.27-1.11-0.53-1.75-0.83c-0.27,0.92-0.5,1.76-0.76,2.58c-2.74,8.56-5.48,17.12-8.22,25.68 c-0.27,0.83-0.5,1.67-0.77,2.5c-0.68,2.14-2.05,3.57-4.28,4.08c-2.37,0.55-4.4-0.08-5.93-1.98c-0.66-0.82-1.23-1.75-1.63-2.72 c-3.9-9.39-7.76-18.79-11.64-28.19c-0.14-0.34-0.3-0.68-0.5-1.16c-0.44,0.4-0.79,0.74-1.15,1.05c-0.11,0.09-0.32,0.18-0.4,0.13 c-0.11-0.06-0.19-0.26-0.18-0.4c0.05-1.97,2.35-3.38,4.12-2.51c0.11,0.05,0.18,0.19,0.37,0.39c-0.55,0.23-1.02,0.43-1.59,0.68 c2.16,4.47,4.8,8.52,8.42,11.93c-0.16-0.4-0.37-0.79-0.46-1.2c-0.22-0.98-0.43-1.96-0.56-2.96c-0.02-0.19,0.35-0.42,0.54-0.64 c0.18,0.2,0.51,0.4,0.51,0.6c0.01,5.08,5.5,9.45,11.72,8.13c3.66-0.77,6.29-2.86,7.21-6.65c0.77-3.17-0.91-6.51-3.69-8.23 c-3.33-2.06-6.68-2.27-10.21-0.72c-0.2,0.09-0.39,0.2-0.58,0.3c-0.83,0.44-1.09,0.3-1.22-0.72c-1.79,0.58-3.47,1.25-4.68,2.79 c-0.17,0.22-0.55,0.29-0.83,0.42c0.02-0.33-0.07-0.75,0.09-0.98c0.39-0.55,0.91-1.01,1.42-1.55c-0.15-0.19-0.32-0.39-0.48-0.6 c-2.11-2.74-3.04-5.79-2.13-9.21c0.9-3.38,4.11-4.68,7.15-2.96c1.62,0.92,2.74,2.31,3.59,3.94c0.12,0.24,0.25,0.47,0.29,0.55 c1.07-1.14,2.05-2.39,3.23-3.39c1.32-1.11,2.94-1.55,4.68-1.06c1.91,0.53,3.25,2.42,3.45,4.73c0.22,2.67-0.46,5.08-1.99,7.26 C423.44,299.37,423.31,299.57,423.14,299.82z M410.73,297.68c0.14-0.01,0.23,0,0.3-0.02c3.73-0.87,7.31-0.54,10.72,1.27 c0.48,0.25,0.63-0.03,0.84-0.32c1.39-1.93,2.06-4.07,1.89-6.46c-0.26-3.5-3.11-5.06-6-3.26c-1.72,1.06-2.78,2.66-3.53,4.49 c-0.13,0.32-0.43,0.57-0.65,0.85c-0.23-0.3-0.55-0.56-0.66-0.9c-0.71-2.1-1.8-3.92-3.73-5.12c-2.38-1.48-4.85-0.59-5.61,2.12 c-0.92,3.24,0.08,6.07,2.18,8.57c0.11,0.13,0.39,0.26,0.53,0.2c1.01-0.39,2-0.82,3.04-1.25c-1.38-0.65-2.07-2.09-1.61-3.54 c0.14-0.43,0.56-0.99,0.93-1.07c0.38-0.08,0.98,0.27,1.28,0.62C411.52,294.87,411.52,296.27,410.73,297.68z M412.46,325.37 c-1.75-0.06-2.62,0.77-2.62,2.04c0,0.38,0.07,0.76,0.16,1.13c0.52,2.29,2.34,4.01,4.65,4.38c1.84,0.29,4.1-0.85,5.11-2.59 c0.57-0.99,0.76-2.03,0.45-3.15c-0.32-1.17-1.06-1.69-2.26-1.44c-0.52,0.11-1.08,0.3-1.5,0.6c-0.64,0.46-1.11,0.33-1.75-0.02 C413.87,325.85,412.94,325.56,412.46,325.37z" class="st0"/><path d="M405.07,331.1c0.1-0.12,0.24-0.39,0.35-0.38c0.2,0.01,0.47,0.16,0.56,0.33c0.37,0.7,0.64,1.45,1.02,2.14 c0.94,1.73,2.16,3.23,3.89,4.23c2.44,1.42,4.91,1.14,7.38,0.05c0.36-0.16,0.88-0.73,1.18-0.06c0.28,0.62-0.43,0.71-0.81,0.88 c-4.53,1.99-8.58,0.91-11.44-3.12c-0.75-1.06-1.27-2.28-1.89-3.43C405.21,331.57,405.17,331.38,405.07,331.1z" class="st0"/><path d="M401.49,287.62c-0.02-3.33,3.48-5.61,6.32-4.26c0.19,0.09,0.37,0.38,0.4,0.59c0.01,0.12-0.3,0.35-0.5,0.4 c-0.44,0.11-0.91,0.12-1.37,0.22c-1.78,0.38-3.14,1.29-3.9,3.01c-0.09,0.2-0.41,0.36-0.65,0.42 C401.72,288.02,401.54,287.69,401.49,287.62z" class="st0"/><path d="M413.86,303.72c-0.18,0.58-0.37,1.15-0.52,1.74c-0.17,0.65-0.39,1.34,0.56,1.63 c0.16,0.05,0.29,0.25,0.4,0.4c0.62,0.8,0.62,1.99,0.02,2.46c-0.56,0.44-1.35,0.16-2.07-0.74c-0.7-0.88-0.93-1.89-0.51-2.91 c0.35-0.84,0.89-1.6,1.39-2.37c0.1-0.16,0.37-0.23,0.56-0.34C413.74,303.63,413.8,303.68,413.86,303.72z" class="st0"/><path d="M420.26,306.21c-0.32-0.69-0.67-1.42-0.98-2.16c-0.08-0.18-0.03-0.42-0.05-0.63 c0.19,0.06,0.42,0.06,0.56,0.18c1.29,1.12,2.4,2.37,1.99,4.25c-0.12,0.55-0.45,1.12-0.83,1.55c-0.68,0.78-1.63,0.5-1.91-0.51 C418.79,307.95,419.09,307.25,420.26,306.21z" class="st0"/><path d="M423.23,284.26c2.17,0.06,3.8,1.55,3.94,3.73c0.01,0.22-0.19,0.45-0.29,0.67 c-0.21-0.13-0.47-0.22-0.63-0.39c-0.43-0.49-0.77-1.06-1.23-1.51c-0.91-0.9-2.01-1.35-3.31-1.32 c-0.22,0.01-0.45-0.17-0.67-0.27c0.17-0.2,0.31-0.5,0.52-0.57C422.1,284.42,422.68,284.36,423.23,284.26z" class="st0"/><path d="M420.84,295.14c-0.23,0.49-0.43,1.18-0.84,1.72c-0.47,0.63-1.22,0.47-1.6-0.23 c-0.44-0.82-0.23-2.32,0.43-2.99c0.55-0.57,1.35-0.46,1.67,0.26C420.65,294.22,420.7,294.58,420.84,295.14z" class="st0"/></g></g></g></g><g><g><g><g id="_x37_CcJ2a.tif_11_"><g><g><path d="M439.1,314.75c-0.87,1.54-6.96,12.48-6.96,12.48c-0.19,0.28-0.34,0.46-0.45,0.66 c-2.13,3.78-4.29,7.54-6.38,11.34c-2.44,4.43-7.29,6.63-12.32,6.08c-4.2-0.46-7.38-2.76-10.24-5.64 c-2.8-2.81-4.69-6.28-6.93-9.5c-0.81-1.16-1.57-2.35-2.35-3.52c-0.14-0.21-2.48-3.7-2.48-3.7 c-2.86-4.27-5.69-8.51-8.58-12.82c0,0-3.42-4.72-1.38-9.57c0.43-1.34,1.41-3.59,2.63-5.12c0.26-0.32,0.45-0.76,0.52-1.16 c0.45-2.46,1.17-4.82,2.41-7.02c0.18-0.32,0.21-0.85,0.08-1.2c-0.97-2.77-1.4-5.58-0.73-8.47c0.98-4.21,3.91-6.67,7.7-8.28 c2.85-1.21,5.87-1.75,8.93-2.02c2.12-0.19,4.45,1.48,5.46,3.8c0.78,1.81,1.04,3.71,0.94,5.67c-0.01,0.18-0.02,0.37-0.03,0.57 c1.65,0.07,3.24,0.11,4.84,0.22c1.43,0.1,2.86,0.26,4.28,0.46c0.69,0.1,1.14-0.04,1.63-0.6c2.42-2.74,5.34-4.61,9.09-4.92 c2.34-0.19,4.55,0.31,6.49,1.56c1.68,1.08,3.29,2.34,4.75,3.71c1.43,1.35,2.41,3.1,1.84,5.14c-0.72,2.59-2.29,4.6-5.01,5.39 c-0.64,0.19-1.35,0.1-2.07,0.15c0.17,1.06,0.34,2.19,0.54,3.31c0.02,0.11,0.1,1.84,0.26,1.85c1.33,0.4,6,3.01,6.9,7.43 C443.55,306.25,442.1,309.38,439.1,314.75z" class="st0"/></g></g></g></g></g><g><g><g id="_x37_CcJ2a.tif_9_"><g><g><path d="M386.37,293.64c0.46-0.22,0.73-0.35,1-0.48c1.86-0.89,3.8-1.48,5.88-1.53c0.42-0.01,0.95-0.12,1,0.55 c0.05,0.62-0.39,0.68-0.86,0.76c-2.12,0.34-4.12,1.05-5.93,2.22c-2.02,1.31-3.61,2.99-4.36,5.35 c-1.08,3.39-0.36,6.51,1.55,9.38c4.37,6.59,8.75,13.17,13.19,19.7c1.94,2.85,3.86,5.74,6.1,8.36 c2.48,2.9,5.54,5.12,9.57,5.39c4.37,0.29,7.86-1.25,10.08-5.15c4.66-8.22,9.29-16.45,13.91-24.69 c1.1-1.97,2.39-3.84,2.99-6.07c1.42-5.25-0.52-9.5-5.51-11.65c-1.45-0.63-3.06-0.88-4.58-1.37c-0.29-0.09-0.48-0.46-0.72-0.7 c0.26-0.19,0.51-0.51,0.79-0.53c0.57-0.04,1.15,0.07,1.73,0.13c0.84,0.09,1.11-0.14,1.13-0.99c0.03-2.06-0.6-3.92-1.76-5.6 c-1.76-2.53-4.29-4.01-7.1-5.08c-3.52-1.34-7.2-1.9-10.93-2.14c-1.51-0.1-3.03-0.08-4.55-0.04c-0.32,0.01-0.8,0.22-0.92,0.47 c-1.79,3.69-8.8,4.75-11.49,2.33c-0.17-0.15-0.58-0.21-0.8-0.12c-2.35,0.97-4.52,2.22-6.15,4.22 C387.93,288.44,386.95,290.83,386.37,293.64z M392.5,272.65c0.31,0.44,0.48,0.66,0.63,0.91c1.13,1.84,2.28,3.66,3.36,5.52 c1.16,2,2.87,2.67,5.1,2.45c2.61-0.25,4.55-1.48,5.1-3.56c0.6-2.3,0.33-4.57-0.83-6.66c-0.69-1.25-1.81-2.09-3.31-1.99 c-3.39,0.23-6.68,0.93-9.7,2.56c-3.68,1.99-5.54,5.06-5.24,9.29c0.08,1.12,0.38,2.23,0.59,3.44 c1.01-0.74,0.97-0.73,0.91-1.45c-0.09-1.04-0.17-2.09-0.14-3.14c0.05-1.69,0.7-3.13,1.91-4.37c0.56-0.57,0.86-1.38,1.26-2.1 C392.27,273.36,392.32,273.12,392.5,272.65z M421.28,278.32c0.12,0.15,0.25,0.29,0.37,0.44c0.26-0.18,0.54-0.34,0.77-0.55 c1.44-1.33,3.05-2.37,4.96-2.89c0.83-0.23,1.08-0.06,1.1,0.78c0.05,1.69,0.53,3.26,1.35,4.73c1.16,2.09,2.81,3.75,4.71,5.17 c0.82,0.61,1.79,0.71,2.62,0.07c0.73-0.56,1.44-1.22,1.98-1.96c1.22-1.67,1.17-2.8-0.1-4.43c-1.52-1.96-3.5-3.37-5.74-4.37 c-0.92-0.41-1.94-0.67-2.94-0.78c-3.17-0.35-5.73,1.04-8.03,3.04C421.99,277.83,421.62,278.06,421.28,278.32z M439.1,314.75 c-0.87,1.54-6.96,12.48-6.96,12.48c-0.19,0.28-0.34,0.46-0.45,0.66c-2.13,3.78-4.29,7.54-6.38,11.34 c-2.44,4.43-7.29,6.63-12.32,6.08c-4.2-0.46-7.38-2.76-10.24-5.64c-2.8-2.81-4.69-6.28-6.93-9.5 c-0.81-1.16-1.57-2.35-2.35-3.52c-0.14-0.21-2.48-3.7-2.48-3.7c-2.86-4.27-5.69-8.51-8.58-12.82c0,0-3.42-4.72-1.38-9.57 c0.43-1.34,1.41-3.59,2.63-5.12c0.26-0.32,0.45-0.76,0.52-1.16c0.45-2.46,1.17-4.82,2.41-7.02c0.18-0.32,0.21-0.85,0.08-1.2 c-0.97-2.77-1.4-5.58-0.73-8.47c0.98-4.21,3.91-6.67,7.7-8.28c2.85-1.21,5.87-1.75,8.93-2.02c2.12-0.19,4.45,1.48,5.46,3.8 c0.78,1.81,1.04,3.71,0.94,5.67c-0.01,0.18-0.02,0.37-0.03,0.57c1.65,0.07,3.24,0.11,4.84,0.22c1.43,0.1,2.86,0.26,4.28,0.46 c0.69,0.1,1.14-0.04,1.63-0.6c2.42-2.74,5.34-4.61,9.09-4.92c2.34-0.19,4.55,0.31,6.49,1.56c1.68,1.08,3.29,2.34,4.75,3.71 c1.43,1.35,2.41,3.1,1.84,5.14c-0.72,2.59-2.29,4.6-5.01,5.39c-0.64,0.19-1.35,0.1-2.07,0.15c0.17,1.06,0.34,2.19,0.54,3.31 c0.02,0.11,0.1,1.84,0.26,1.85c1.33,0.4,6,3.01,6.9,7.43C443.55,306.25,442.1,309.38,439.1,314.75z" class="st1"/><path d="M423.49,300.06c2.14,1.77,3.48,3.97,3.88,6.79c0.8-2.53,1.6-5.05,2.45-7.71 c-0.41-0.04-0.7-0.04-0.98-0.09c-0.28-0.05-0.55-0.14-0.86-0.22c0.74-0.94,2.14-1.3,3.21-0.9c1.03,0.38,1.77,1.36,1.69,2.38 c-0.58-0.28-1.13-0.53-1.77-0.84c-0.28,0.93-0.51,1.78-0.77,2.61c-2.77,8.67-5.55,17.34-8.33,26.01 c-0.27,0.84-0.51,1.69-0.78,2.53c-0.69,2.17-2.08,3.62-4.33,4.13c-2.41,0.55-4.46-0.08-6.01-2.01 c-0.67-0.83-1.25-1.77-1.65-2.75c-3.95-9.5-7.86-19.03-11.79-28.55c-0.14-0.35-0.3-0.69-0.51-1.17 c-0.45,0.41-0.8,0.75-1.17,1.06c-0.11,0.09-0.32,0.18-0.41,0.13c-0.11-0.06-0.19-0.27-0.18-0.41c0.05-2,2.38-3.42,4.17-2.54 c0.11,0.05,0.18,0.19,0.37,0.39c-0.55,0.24-1.03,0.44-1.61,0.69c2.19,4.53,4.87,8.63,8.53,12.09 c-0.16-0.4-0.37-0.8-0.47-1.21c-0.23-0.99-0.43-1.99-0.56-2.99c-0.02-0.19,0.36-0.43,0.55-0.65c0.18,0.2,0.52,0.4,0.52,0.61 c0.01,5.15,5.57,9.57,11.87,8.23c3.7-0.78,6.37-2.89,7.31-6.73c0.78-3.21-0.93-6.59-3.74-8.33 c-3.37-2.08-6.77-2.3-10.34-0.73c-0.2,0.09-0.39,0.2-0.59,0.31c-0.84,0.45-1.11,0.31-1.23-0.73 c-1.81,0.58-3.52,1.26-4.74,2.82c-0.17,0.22-0.55,0.29-0.84,0.43c0.02-0.34-0.08-0.76,0.09-1c0.4-0.56,0.92-1.02,1.44-1.57 c-0.16-0.19-0.33-0.4-0.49-0.61c-2.14-2.78-3.08-5.86-2.16-9.32c0.91-3.42,4.16-4.74,7.24-3c1.64,0.93,2.77,2.34,3.64,3.99 c0.13,0.24,0.25,0.48,0.29,0.56c1.08-1.16,2.07-2.42,3.27-3.43c1.34-1.13,2.98-1.57,4.74-1.08c1.93,0.54,3.29,2.45,3.49,4.79 c0.23,2.7-0.47,5.14-2.01,7.35C423.8,299.6,423.66,299.8,423.49,300.06z M410.92,297.89c0.15-0.01,0.23,0,0.3-0.02 c3.77-0.88,7.41-0.54,10.86,1.29c0.48,0.26,0.64-0.03,0.85-0.33c1.41-1.95,2.09-4.12,1.91-6.54 c-0.26-3.55-3.15-5.12-6.08-3.3c-1.74,1.08-2.81,2.69-3.58,4.55c-0.13,0.32-0.43,0.57-0.66,0.86 c-0.23-0.3-0.56-0.57-0.67-0.91c-0.72-2.13-1.82-3.97-3.77-5.18c-2.41-1.5-4.91-0.59-5.69,2.14 c-0.93,3.28,0.08,6.15,2.2,8.68c0.11,0.13,0.4,0.26,0.53,0.21c1.02-0.39,2.03-0.83,3.08-1.27c-1.4-0.66-2.09-2.12-1.63-3.59 c0.14-0.44,0.56-1,0.95-1.08c0.39-0.08,0.99,0.28,1.3,0.62C411.72,295.04,411.72,296.46,410.92,297.89z M412.68,325.93 c-1.77-0.06-2.66,0.78-2.65,2.07c0,0.38,0.08,0.77,0.16,1.15c0.52,2.32,2.37,4.06,4.71,4.43c1.86,0.3,4.16-0.86,5.18-2.63 c0.58-1,0.77-2.05,0.45-3.19c-0.33-1.19-1.08-1.71-2.29-1.46c-0.53,0.11-1.09,0.3-1.52,0.61c-0.65,0.47-1.13,0.33-1.77-0.02 C414.11,326.42,413.15,326.13,412.68,325.93z" class="st1"/><path d="M405.19,331.74c0.1-0.12,0.24-0.39,0.36-0.38c0.2,0.01,0.47,0.16,0.56,0.33 c0.37,0.71,0.65,1.47,1.03,2.17c0.96,1.75,2.19,3.27,3.94,4.28c2.48,1.44,4.97,1.15,7.48,0.05c0.37-0.16,0.89-0.74,1.19-0.06 c0.28,0.63-0.44,0.72-0.83,0.89c-4.59,2.01-8.69,0.92-11.59-3.16c-0.76-1.07-1.29-2.31-1.91-3.47 C405.33,332.22,405.29,332.02,405.19,331.74z" class="st1"/><path d="M401.57,287.71c-0.02-3.38,3.53-5.68,6.4-4.32c0.2,0.09,0.38,0.39,0.4,0.6c0.01,0.12-0.3,0.35-0.5,0.4 c-0.45,0.11-0.93,0.12-1.38,0.22c-1.8,0.38-3.18,1.3-3.95,3.05c-0.09,0.21-0.41,0.36-0.66,0.43 C401.79,288.11,401.62,287.77,401.57,287.71z" class="st1"/><path d="M414.09,304.01c-0.18,0.59-0.38,1.17-0.53,1.76c-0.17,0.66-0.39,1.35,0.57,1.66 c0.16,0.05,0.29,0.25,0.41,0.4c0.62,0.81,0.63,2.01,0.02,2.49c-0.57,0.44-1.37,0.16-2.1-0.75c-0.71-0.89-0.94-1.91-0.51-2.95 c0.35-0.85,0.9-1.62,1.4-2.4c0.11-0.17,0.37-0.23,0.56-0.34C413.97,303.92,414.03,303.96,414.09,304.01z" class="st1"/><path d="M420.57,306.53c-0.32-0.7-0.67-1.43-0.99-2.18c-0.08-0.19-0.03-0.43-0.05-0.64 c0.19,0.06,0.43,0.06,0.57,0.18c1.31,1.13,2.43,2.4,2.02,4.3c-0.12,0.56-0.46,1.13-0.84,1.57c-0.69,0.79-1.65,0.5-1.93-0.51 C419.08,308.29,419.39,307.59,420.57,306.53z" class="st1"/><path d="M423.58,284.29c2.2,0.06,3.84,1.57,3.99,3.78c0.01,0.22-0.19,0.45-0.29,0.68 c-0.22-0.13-0.48-0.22-0.64-0.4c-0.44-0.49-0.78-1.07-1.25-1.53c-0.92-0.91-2.04-1.37-3.36-1.34 c-0.22,0.01-0.45-0.17-0.68-0.27c0.17-0.2,0.31-0.51,0.53-0.58C422.44,284.46,423.02,284.4,423.58,284.29z" class="st1"/><path d="M421.16,295.31c-0.23,0.49-0.44,1.19-0.85,1.74c-0.47,0.64-1.24,0.47-1.62-0.23 c-0.45-0.83-0.23-2.34,0.43-3.03c0.56-0.58,1.37-0.46,1.69,0.27C420.97,294.38,421.01,294.75,421.16,295.31z" class="st1"/></g></g></g></g></g></g></g></svg>