<svg xmlns="http://www.w3.org/2000/svg" xmlns:xlink="http://www.w3.org/1999/xlink" id="Layer_1" x="0" y="0" version="1.1" viewBox="0 0 269.2 154.7" xml:space="preserve" style="enable-background:new 0 0 269.2 154.7"><style type="text/css">.st0{fill:#fff}.st1,.st2{opacity:.35;fill:#fff}.st2{opacity:.25}</style><g><g><path d="M61.5,85.1c0-13.4-9.1-17.1-15.9-17.1s-11.9,2.6-15.2,7.3c-3.3,4.7-4.1,10.5-3.8,21.9s2,22.7,2.7,29.4 c0.8,6.7,3.8,8,7.4,8c3.6,0,4.1-1.3,3.6-3.9c-0.4-4-2.3-19.7-2.3-19.7C58.7,108.4,61.5,92.4,61.5,85.1z M37.1,101.9 c0,0-3.8-24,7.5-24.4c6.4,0,7.3,7.1,7.3,8.9C51.9,88.1,51.9,99.5,37.1,101.9z" class="st0"/><path d="M68.4,93.9c-2.3,0-6.4,0.3-6.4,4.2c0,3.9,3,3.6,5.1,3.6c2.1,0,3.8,1.4,3.8,2.7c0,1.3,0,1.8,0,1.8 c-13.8,0-20.2,6.6-20.2,12.7c0,6.1,4.1,11.6,10.1,11.6s9.5-6.2,9.5-6.2s-0.2,2.9,1,4.7c1.3,1.8,5.4,1.6,6.4,1.6 c1,0,1.2-1.2,1.2-3.5c0-4.3,0-15.2,0-22C79,95.1,70.7,93.9,68.4,93.9z M69,119.1c-1.7,3.2-6.2,5-8,2.6c-1.8-2.4,0-5.5,1.6-6.9 c3.2-2.8,8-2.2,8-2.2S70.7,115.9,69,119.1z" class="st0"/><path d="M92.6,110.5c0,2.6,0,15.3,0,17.7c0,2.4-0.5,3-2,3c-1.6,0-7.7-0.3-7.7-8s0-22.1,0-23.9c0-1.8,2-5.5,5.8-5.5 c1.4,0,2.6,1,2.6,2.8c0,1.3,0,2.8,0,2.8s2.9-3.9,8.9-3.9c6,0,8.4,4.7,8.4,4.7s2.7-4.8,9.1-4.8s10.1,5.5,10.1,10.3s0,19.2,0,21.7 c0,2.4-1.9,2.7-3.4,2.7s-6.3-1.5-6.3-7.4c0-5.9-0.1-11.9-0.1-14.2s-1.4-3.8-3.6-3.8c-2.2,0-4.4,2-4.4,4.3s0,13.5,0,16.5 s-2.9,3.1-3.7,3.1s-5.8-0.8-5.8-5.9c0-5.1-0.1-9.8-0.1-12.5c0-2.7-0.7-5.4-3.3-5.4S92.6,106.5,92.6,110.5z" class="st0"/><path d="M144,93.1c-11.5,0-12.7,9.4-12.7,13.6c0,4.2,0,26.7,0,31.1c0,4.4,3.8,4.8,5.3,4.8c1.5,0,2.9-0.8,2.9-2 s0-12.3,0-12.3c13.4-1.1,18.5-12.5,18.5-20.3C158.1,98.8,152.3,93.1,144,93.1z M139.7,120.4c0,0,0-11.1,0-13.5c0-2.4,1.3-5,5-5 c3.8,0,5.1,3.4,5.1,6.3C149.9,111,148.6,120.1,139.7,120.4z" class="st0"/><path d="M185.1,117.1c-0.7-1-2.5-2-4.7,0.1c-2.2,2.1-4.4,4-7.5,4s-3.5-2.6-3.5-4.4c0,0,11.8-4,14.1-5.1 c2.4-1.1,2.5-2.6,2.5-4.8c-0.1-2.2-1.8-13.1-12.5-13.1c-4.9,0-10.6,4.9-12.4,13.3c-0.9,4.6-3,22.2,10.9,22.2 c8.8,0,12.8-6.1,13.7-8.2C186.6,119,185.8,118.2,185.1,117.1z M173.5,101.8c3.9-0.8,4.1,4.8,4.1,4.8l-8.3,2.8 C169.4,107.8,169.6,102.6,173.5,101.8z" class="st0"/><path d="M189.5,99c0-1.5,2-4.7,5.8-4.7c2.1,0,2.9,1.1,2.9,2c0,0.8,0,3,0,3s3.7-4.5,7.7-4.5c2.7,0,3.2,3,3.2,4.2 s0.3,2.5-1.5,3.2c-1.7,0.7-8.6,3.4-8.6,6.8s0.1,17.5,0.1,19.1c0,2.5-2.4,2.6-3.4,2.6c-1,0-6.2-0.1-6.2-6.2S189.5,99,189.5,99z" class="st0"/><path d="M210.8,104c0-3,0.5-10.6,11.5-10.6c7.6,0,11.2,6.3,11.2,9.9c0,1.2-0.8,2.4-2.6,3c-1.7,0.6-4,0.3-4.7-1.4 c-0.7-1.6-1.9-3.8-4.1-3.8c-2.2,0-2.8,2.1-2.8,2.7c0,2.1,2.6,3.8,7.5,8.3c4.9,4.5,5.6,6.8,5.6,10.9c0,4.2-3.7,9.9-11.6,9.9 c-6.8,0-11.4-3.5-13.9-7.2c-1-1.6-0.4-3.8,0.6-5.4c1-1.5,2.7-2.3,4.1-0.8c1.4,1.4,4.7,5.2,8.7,5.2c2.1,0,3.2-1.5,3.2-2.9 c0-2.6-5.1-4.9-8.7-8.8C210.4,108.3,210.8,104,210.8,104z" class="st0"/><g><path d="M239.1,126.2c2,0,3.5,1.5,3.5,3.5s-1.6,3.5-3.6,3.5c-2,0-3.6-1.5-3.6-3.5S237,126.2,239.1,126.2L239.1,126.2 z M239,126.9c-1.5,0-2.7,1.3-2.7,2.8c0,1.5,1.2,2.8,2.7,2.8c1.5,0,2.6-1.2,2.6-2.8C241.7,128.1,240.6,126.9,239,126.9L239,126.9z M238.5,131.4h-0.8V128c0.3,0,0.8-0.1,1.3-0.1c0.7,0,1,0.1,1.2,0.3c0.2,0.1,0.4,0.4,0.4,0.7c0,0.4-0.3,0.7-0.7,0.8v0 c0.3,0.1,0.5,0.4,0.6,0.8c0.1,0.5,0.2,0.7,0.3,0.8h-0.8c-0.1-0.1-0.2-0.4-0.3-0.8c-0.1-0.4-0.3-0.5-0.7-0.5h-0.4V131.4z M238.5,129.5h0.4c0.4,0,0.8-0.1,0.8-0.5c0-0.3-0.2-0.5-0.7-0.5c-0.2,0-0.4,0-0.4,0V129.5z" class="st0"/></g><path d="M194.7,61.8c1.6,0,2.9-0.1,2.9-1.3c0-1.3,0-1.5,0-2.9s-0.1-1.7-2.4-1.7s-7.4,0.7-10.3,5.5v2.9 C185,64.4,189.8,61.8,194.7,61.8z" class="st0"/><path d="M191.8,33.8c0.8-1,1.2-1.6,0.4-2.4c-0.8-0.8-2-1.8-2.5-2.2c-0.5-0.5-1.5-0.6-2.8,0.7 c-1.3,1.3-5.1,4.9-6.2,8.1c-0.1,0.5-0.5,2.3,1.2,3.8c0.5,0.4,1.2,1.1,2.1,0C184.7,40.8,191.8,33.8,191.8,33.8z" class="st0"/><path d="M166.7,31.9c0,0-0.2-9.5-0.2-10.1c-0.1-0.6-2.2-3.2-5.7-3.2c-0.3,0-0.4,0.1-0.4,0.9c0,0.8,0.2,7,0.4,8.2 S162.3,31.9,166.7,31.9z" class="st0"/><path d="M141.9,34.6c0.5,0,1.9,0.5,3.1,1.5c1.2,1,4,3.4,5.1,5.6c0.1,0.5,0,0.5-0.9,0.5s-4.4-0.3-5.5-1.3 c-1-1.1-3.5-4-3.8-4.6C139.6,35.7,139.8,34.6,141.9,34.6z" class="st0"/><path d="M168.5,37.8c-14.2-0.6-18.7,18.6-18.7,18.6s-6.9-5.1-14.8-5.1c-6.1,0-10.6,5.2-10.6,10.5 c0,7.5,5.8,15.3,12.9,20.8c9.2,7.2,18.7,11.7,23.6,11.7s10-7.9,12.8-12.8c6.7-11.9,7-23.5,7-28C180.8,49,177.2,38.4,168.5,37.8z M154.2,66c0,0,7,4.2,4.5,7.6C157.8,74.9,154.1,71.3,154.2,66z M170.8,64.1c-1.6,7.2-6.2,24.8-12.7,24.8c-4.7,0-23.6-15-23.6-24.5 c0-3.3,2.4-5.3,4.5-5.3c3.3,0,10,3.6,10,3.6s0.5,16.6,7.3,16.6c2.7,0,6.7-3.9,6.7-7c0-2.3-1.6-7.6-8.3-12.4 c0,0,2.1-12.4,11.6-12.4C170.3,47.6,173,53.9,170.8,64.1z" class="st0"/></g><path d="M149,62.7c0,0,4.7,3,5.2,3.3c-0.1,1.2,0.3,2.7,0.3,2.7l-4.8,0.3C149.7,69.1,149.1,65.7,149,62.7z" class="st1"/><polygon points="149.8 56.4 154.8 60 155 59 150 55.6" class="st2"/></g></svg>