<svg xmlns="http://www.w3.org/2000/svg" xmlns:xlink="http://www.w3.org/1999/xlink" id="Laag_1" x="0" y="0" version="1.1" viewBox="0 0 850.4 186" xml:space="preserve" style="enable-background:new 0 0 850.4 186"><style type="text/css">.st0{fill:#fff}</style><path id="XMLID_94_" d="M81.1,173.3c-55.5-0.1-61.4-36.1-61.5-51.5h29.3c0.1,7.3,3.5,24.3,30,24.3	c8.5,0,15.1-1.3,20-3.7c6.3-3.3,9.5-8.6,9.5-15.8c0-11.3-9.7-14.6-25.6-18.7l-15.4-3.7c-23.5-5.9-45.6-11.4-45.6-45.4	c0-6.7,1.4-19.5,10.1-30.1C41.3,17.2,56.5,11.5,77,11.5c19.6,0,34.5,6,44.5,17.8c10.2,12.2,11.5,26.4,11.5,32h-29.2	c-0.8-6.3-2.7-22.8-29-22.8c-6.4,0-12.3,1.4-16.5,4c-5.2,3.2-7.9,7.9-7.9,14.1c0,11.9,9.2,14.2,14.9,15.6l34.7,9.2	c19.6,5.1,37.7,13.7,37.7,41.4c0,19.9-7.8,34.1-23.6,42.5C101.1,172.5,86.6,173.3,81.1,173.3" class="st0"/><polyline id="XMLID_93_" points="209.3 169.2 178.8 169.2 178.8 43.3 135.7 43.3 135.7 15.6 252.4 15.6 252.4 43.3 209.3 43.3 209.3 169.2" class="st0"/><polyline id="XMLID_92_" points="698.4 169.2 589.4 169.2 589.2 15.5 694.9 15.5 694.9 43.4 619.2 43.4 619.2 74.9 688.8 74.9 688.8 102.7 619.2 102.7 619.2 141.4 698.4 141.4 698.4 169.2" class="st0"/><path id="XMLID_89_" d="M326.7,169.2l-9.2-31.5h-52.3l-9.9,31.5h-32.2l51.1-153.6h34.9l50.6,153.6H326.7 M273.4,110.7	H309l-17.5-59.8L273.4,110.7z" class="st0"/><path id="XMLID_86_" d="M396.8,169.2h-30.4l-0.1-153.6h65.6c27.5,0,44.7,19,44.7,49.3c0,7.9-2.3,20-8.5,29.9	c-8.1,12.8-20.6,19.4-37.4,19.4h-34V169.2 M396.8,87l27.4,0.1c21.9,0,21.9-16.5,21.9-23.6c0-14.9-7.6-20.9-25.9-20.9h-23.5V87z" class="st0"/><path id="XMLID_85_" d="M483.3,152.2V39.8c0-15.6,13.1-28.3,29.3-28.3c15.4,0,27.4,10.6,29.6,25.6l9.7,50.1L524,92.6	l-10.2-53c0,0-0.1-0.6-0.8-0.6c-0.4,0.1-0.5,0.5-0.5,0.8l0.1,101.7h70.2v27.8h-84.2C490.1,169.2,483.3,160.5,483.3,152.2" class="st0"/><path id="XMLID_82_" d="M815.8,17.5l4.5,0.1c2.8-0.1,4.1,1,4.1,3.3c0,2-1.3,3-3.1,3.1l3.3,5.2h-1.9l-3.2-5.1h-1.9v5.1	h-1.8V17.6 M817.5,22.8h1.9c1.5,0,3.1-0.1,3.1-1.9c0-1.5-1.4-1.8-2.6-1.8h-2.4L817.5,22.8L817.5,22.8z" class="st0"/><path id="XMLID_79_" d="M829.7,23.4c0,5.5-4.5,10.1-10.1,10.1c-5.5,0-10-4.6-10-10.1s4.5-10,10-10	C825.2,13.4,829.7,17.9,829.7,23.4 M819.6,14.9c-4.6,0-8.5,3.8-8.5,8.5c0,4.7,3.8,8.5,8.5,8.5c4.7,0,8.5-3.7,8.5-8.5	C828.1,18.8,824.3,14.9,819.6,14.9z" class="st0"/><path id="XMLID_78_" d="M764.9,173.3c-55.3-0.1-61.4-36.1-61.4-51.5h29.2c0.3,7.3,3.5,24.3,30,24.3	c8.5,0,15.2-1.3,20.1-3.7c6.3-3.3,9.3-8.6,9.3-15.8c0-11.3-9.6-14.6-25.6-18.7l-15.2-3.7c-23.5-5.9-45.6-11.4-45.6-45.4	c0-6.7,1.3-19.5,10.1-30.1c9.3-11.5,24.6-17.3,45-17.3c19.6,0,34.6,6,44.5,17.8c10.4,12.2,11.5,26.4,11.7,32h-29.3	c-0.6-6.3-2.7-22.8-29-22.8c-6.4,0-12.2,1.4-16.5,4c-5.2,3.2-7.9,7.9-7.9,14.1c0,11.9,9.3,14.2,14.9,15.6l34.8,9.2	c19.5,5.1,37.7,13.7,37.7,41.4c0,19.9-7.9,34.1-23.6,42.5C784.9,172.5,770.5,173.3,764.9,173.3" class="st0"/></svg>