<?xml version="1.0" encoding="utf-8"?>
<!-- Generator: Adobe Illustrator 25.4.1, SVG Export Plug-In . SVG Version: 6.00 Build 0)  -->
<svg version="1.1" xmlns="http://www.w3.org/2000/svg" xmlns:xlink="http://www.w3.org/1999/xlink" x="0px" y="0px"
	 viewBox="0 0 263.2 215" style="enable-background:new 0 0 263.2 215;" xml:space="preserve">
<style type="text/css">
	.st0{fill:#FFFFFF;}
</style>
<g id="Layer_1">
</g>
<g id="Graphics">
	<g>
		<g>
			<g>
				<g>
					<g>
						<g>
							<path class="st0" d="M210.1,119.1l25.2-4.3l-5.6,14.6c-3.1,6.4-8.7,13.6-21,15.2c-2.3,0.5-16.4,2.4-19.4,2.8
								c-6.6,0.3-18.6,0.2-16.5-15.4c4-20.7,10.1-34.9,13.7-43.9c4.8-11.7,10.4-14.2,18.1-16.8c11.9-3.1,16.1-3.1,23.9-3.8
								c13.6-0.6,16.9,5,15.3,16.1l-6.6,24.9l-36.4,6.1c-1.4,4.4-3.4,9.8-2.9,11.6c0.4,3,6.5,2,9.3-0.3
								C209,123.7,210,119.7,210.1,119.1z M203.8,100.3l11.2-1.8c0.7-3.6,5.2-11.1-1.7-10.4C205.1,88.7,205.1,97,203.8,100.3z"/>
							<path class="st0" d="M158.2,80l12.1-39l24.9-4l-36.3,115.5l-35.5,5.7c-8.9,1.5-19,0-18.8-12.1c0.9-11.3,10.6-41.2,15.8-50.6
								c3.4-7.8,12.8-11.5,18.2-12.2L158.2,80z M130,136c-0.3,2.5,0.5,2.5,1.6,3.3c0.9,0.3,6.9-0.5,8.5-1.4l12.1-38.5l-6.2,0.9
								c-3.9,0.4-4.6,2-5.8,4.3"/>
						</g>
						<path class="st0" d="M141.7,40.9c-2.3,6-4,4.9-12,6.4l-35.2,5.9L53.3,187.4l-31.9,5.2L63.1,58.3l-42.2,7.2l7.6-25.1
							c2.7-8.9,2.5-8.1,14.9-10.1l107.8-17.1L141.7,40.9z"/>
						<path class="st0" d="M96.4,80.8c5.9,5.6,16.4,5.3,23.4-0.9c7-6.1,8-15.7,2.1-21.3c-5.9-5.7-16.4-5.3-23.4,0.9
							C91.5,65.6,90.6,75.1,96.4,80.8z"/>
					</g>
					<polygon class="st0" points="115.4,87 91.3,163.7 67.3,167.6 91.5,91 					"/>
				</g>
			</g>
		</g>
	</g>
</g>
</svg>
